<svg xmlns="http://www.w3.org/2000/svg" xmlns:xlink="http://www.w3.org/1999/xlink" xmlns:lucid="lucid" width="2111" height="2361"><g transform="translate(-29.5 -139.5)" lucid:page-tab-id="0_0"><path d="M0 0h2500v2500H0z" fill="#fff"/><path d="M220 200c0 11.05-8.95 20-20 20s-20-8.95-20-20 8.95-20 20-20 20 8.95 20 20z" stroke="#3a414a"/><path d="M221 200h262.12" stroke="#3a414a" fill="none"/><path d="M221 200.5h-.56l.06-.48-.02-.52h.53z" stroke="#3a414a" stroke-width=".05" fill="#3a414a"/><path d="M497.88 200l-14.26 4.63v-9.26z" stroke="#3a414a" fill="#3a414a"/><path d="M516 160c-8.84 0-16 7.16-16 16v48c0 8.84 7.16 16 16 16h348c8.84 0 16-7.16 16-16v-48c0-8.84-7.16-16-16-16z" stroke="#3a414a" fill="#fff"/><use xlink:href="#a" transform="matrix(1,0,0,1,508,168) translate(13.604938271604937 36.44444444444444)"/><use xlink:href="#b" transform="matrix(1,0,0,1,508,168) translate(43.23456790123457 36.44444444444444)"/><use xlink:href="#c" transform="matrix(1,0,0,1,508,168) translate(146.87654320987653 36.44444444444444)"/><use xlink:href="#d" transform="matrix(1,0,0,1,508,168) translate(203.60493827160494 36.44444444444444)"/><use xlink:href="#e" transform="matrix(1,0,0,1,508,168) translate(222.12345679012347 36.44444444444444)"/><use xlink:href="#f" transform="matrix(1,0,0,1,508,168) translate(261.5679012345679 36.44444444444444)"/><use xlink:href="#g" transform="matrix(1,0,0,1,508,168) translate(286.25925925925924 36.44444444444444)"/><use xlink:href="#h" transform="matrix(1,0,0,1,508,168) translate(317.12345679012344 36.44444444444444)"/><path d="M690 241l.03.73.07 1.2.13 1.2.17 1.18.23 1.2.27 1.16.33 1.17.38 1.18.45 1.2.5 1.2.6 1.23.64 1.24.73 1.28.83 1.32.95 1.36 1.08 1.4 1.22 1.48 1.38 1.55 1.6 1.62 1.83 1.72 2.13 1.82 2.48 1.96 2.94 2.13 3.5 2.33 4.2 2.55 5.2 2.85 6.5 3.22 8.42 3.74 11.3 4.44 16.22 5.63 26.96 8.07 140.48 37.4 16.22 5.62 11.3 4.45 8.4 3.75 6.52 3.22 5.2 2.85 4.2 2.55 3.5 2.32 2.93 2.12 2.47 1.96 2.12 1.83 1.82 1.73 1.6 1.62 1.38 1.54 1.22 1.46 1.07 1.4.94 1.37.83 1.32.06.1" stroke="#3a414a" stroke-linejoin="round" fill="none"/><path d="M690.5 241l-1 .03v-.53h1z" stroke="#3a414a" stroke-width=".05" fill="#3a414a"/><path d="M1009.55 397.94l-8.4-12.43 8.92-2.55z" stroke="#3a414a" fill="#3a414a"/><path d="M876 400c-8.84 0-16 7.16-16 16v48c0 8.84 7.16 16 16 16h268c8.84 0 16-7.16 16-16v-48c0-8.84-7.16-16-16-16z" stroke="#3a414a" fill="#fff"/><use xlink:href="#i" transform="matrix(1,0,0,1,868,408) translate(21.81481481481481 36.44444444444444)"/><use xlink:href="#j" transform="matrix(1,0,0,1,868,408) translate(117.98765432098764 36.44444444444444)"/><use xlink:href="#k" transform="matrix(1,0,0,1,868,408) translate(152.49382716049382 36.44444444444444)"/><path d="M690 241l-.03.96-.1 1.42-.14 1.4-.2 1.38-.26 1.37-.32 1.36-.38 1.35-.44 1.36-.5 1.38-.6 1.38-.65 1.4-.75 1.42-.84 1.46-.95 1.5-1.07 1.53-1.2 1.58-1.38 1.66-1.55 1.73-1.78 1.82-2.04 1.9-2.37 2.05-2.76 2.2-3.25 2.35-3.88 2.57-4.7 2.85-5.8 3.18-7.38 3.65-9.72 4.3-13.64 5.4-22.2 7.67-110.48 34.54-13.64 5.4-9.7 4.3-7.38 3.65-5.8 3.2-4.7 2.83-3.9 2.57-3.24 2.36-2.76 2.2-2.37 2.04-2.04 1.9-1.78 1.83-1.55 1.72-1.37 1.64-1.2 1.6-1.08 1.53-.94 1.5-.83 1.45-.5.93" stroke="#3a414a" stroke-linejoin="round" fill="none"/><path d="M690.5 241.03l-1-.03v-.5h1z" stroke="#3a414a" stroke-width=".05" fill="#3a414a"/><path d="M420.4 397.93l-1.1-14.96 9 2.22z" stroke="#3a414a" fill="#3a414a"/><path d="M296 400c-8.84 0-16 7.16-16 16v48c0 8.84 7.16 16 16 16h248c8.84 0 16-7.16 16-16v-48c0-8.84-7.16-16-16-16z" stroke="#3a414a" fill="#fff"/><use xlink:href="#l" transform="matrix(1,0,0,1,288,408) translate(72.83333333333333 36.44444444444444)"/><path d="M1260.63 556.34l21.05 5.36 13.23 3.97 9.18 3.18 6.72 2.65 5.1 2.27 4 1.98 3.2 1.76 2.62 1.6 2.15 1.4 1.8 1.32 1.52 1.2 1.3 1.12.77.73-.7.73-.75-.7-1.26-1.1-1.5-1.18-1.76-1.28-2.12-1.4-2.57-1.56-3.15-1.74-3.96-1.96-5.1-2.26-6.67-2.63-9.13-3.18-13.2-3.96-21-5.35-70.16-13.5v-1zm-250.12-75.2l.05.65.07.63.1.63.12.63.14.63.18.64.2.64.26.67.28.67.32.68.37.7.4.73.48.75.54.77.62.82.7.84.82.9.93.96 1.08 1 1.27 1.1 1.48 1.18 1.77 1.3 2.12 1.4 2.57 1.54 3.15 1.74 3.96 1.96 5.1 2.26 6.67 2.63 9.13 3.18 13.2 3.96 21 5.35 44.56 9.3 25.46 4.9v1l-25.66-4.93-44.6-9.3-21.04-5.37-13.23-3.97-9.18-3.18-6.72-2.65-5.1-2.27-4-1.98-3.2-1.76-2.62-1.58-2.15-1.43-1.8-1.32-1.52-1.2-1.3-1.12-1.1-1.05-.97-.97-.84-.94-.74-.9-.65-.84-.55-.8-.5-.8-.44-.76-.38-.73-.34-.73-.3-.7-.25-.7-.22-.68-.18-.68-.16-.68-.13-.67-.1-.68-.07-.68-.05-.68v-.2h1z" stroke="#3a414a" stroke-width=".05" fill="#3a414a"/><path d="M1010.5 481l-1 .02v-.52h1z" fill="#3a414a"/><path d="M1010.54 481.03l-1.05.02-.03-.57h1.05zm-1-.5v.47l.95-.02-.02-.46z" stroke="#3a414a" stroke-width=".05" fill="#3a414a"/><path d="M1339.28 598.05l-10.5-10.72 8.3-4.12z" fill="#3a414a"/><path d="M1340 599.5l-12.05-12.3 9.54-4.74zm-10.37-12.03l8.93 9.13-1.86-12.64z" stroke="#3a414a" stroke-width=".05" fill="#3a414a"/><use xlink:href="#m" transform="matrix(1,0,0,1,1159.6226284314332,529.6805560418137) translate(0 14.222222222222223)"/><path d="M1276 600c-8.84 0-16 7.16-16 16v48c0 8.84 7.16 16 16 16h128c8.84 0 16-7.16 16-16v-48c0-8.84-7.16-16-16-16z" stroke="#3a414a" fill="#fff"/><use xlink:href="#n" transform="matrix(1,0,0,1,1268,608) translate(29.438271604938272 36.44444444444444)"/><path d="M863.27 543.56L808.4 556.4l-16.22 4.86-10.68 3.7-7.65 3.02-5.77 2.56-4.5 2.23-3.58 1.96-2.92 1.77-2.4 1.6-2.02 1.46-1.7 1.35-1.46 1.26-1.25 1.17-1.08 1.1-.58.65-.75-.67.6-.65 1.1-1.13 1.3-1.2 1.47-1.28 1.74-1.38 2.05-1.5 2.45-1.6 2.95-1.8 3.62-1.98 4.53-2.24 5.8-2.58 7.7-3.04 10.72-3.72 16.28-4.88 55.12-12.88zM1010.5 481l-.02.34-.05.83-.08.8-.13.82-.15.8-.2.8-.22.82-.26.8-.32.84-.35.83-.4.84-.45.87-.52.9-.58.92-.66.94-.74 1-.85 1-.97 1.1-1.1 1.12-1.3 1.2-1.48 1.3-1.74 1.36-2.05 1.5-2.45 1.6-2.95 1.8-3.62 1.98-4.53 2.24-5.8 2.58-7.7 3.04-10.72 3.72-16.28 4.88-31.47 7.97-23.5 5.5v-1.03l23.26-5.44 31.45-7.97 16.22-4.86 10.68-3.7 7.65-3.02 5.77-2.56 4.5-2.23 3.58-1.96 2.92-1.77 2.4-1.6 2.02-1.46 1.7-1.35 1.46-1.26 1.25-1.17 1.08-1.1.94-1.05.82-1 .7-.94.65-.92.56-.88.5-.85.44-.83.38-.8.33-.8.3-.8.25-.77.2-.77.2-.77.14-.77.1-.77.1-.78.04-.78v-.3z" stroke="#3a414a" stroke-width=".05" fill="#3a414a"/><path d="M1010.5 481.02l-1-.02v-.5h1z" fill="#3a414a"/><path d="M1010.5 481.05l-1.04-.02v-.55h1.07zm-.98-.53v.46l.95.02v-.48z" stroke="#3a414a" stroke-width=".05" fill="#3a414a"/><path d="M750.44 586.66l-9.8 11.35 1.26-14.94z" fill="#3a414a"/><path d="M751.27 586.47L740 599.5l1.46-17.16zm-10 10.05l8.34-9.66-7.26-3.07z" stroke="#3a414a" stroke-width=".05" fill="#3a414a"/><use xlink:href="#o" transform="matrix(1,0,0,1,863.2678115117587,529.6257106540241) translate(0 14.222222222222223)"/><path d="M676 600c-8.84 0-16 7.16-16 16v48c0 8.84 7.16 16 16 16h128c8.84 0 16-7.16 16-16v-48c0-8.84-7.16-16-16-16z" stroke="#3a414a" fill="#fff"/><use xlink:href="#p" transform="matrix(1,0,0,1,668,608) translate(16.506172839506178 36.44444444444444)"/><use xlink:href="#q" transform="matrix(1,0,0,1,668,608) translate(47.370370370370374 36.44444444444444)"/><use xlink:href="#r" transform="matrix(1,0,0,1,668,608) translate(90.58024691358025 36.44444444444444)"/><path d="M1421 640h182.12" stroke="#3a414a" fill="none"/><path d="M1421 640.5h-.5v-1h.5z" stroke="#3a414a" stroke-width=".05" fill="#3a414a"/><path d="M1617.88 640l-14.26 4.63v-9.26z" stroke="#3a414a" fill="#3a414a"/><path d="M1636 600c-8.84 0-16 7.16-16 16v48c0 8.84 7.16 16 16 16h208c8.84 0 16-7.16 16-16v-48c0-8.84-7.16-16-16-16z" stroke="#3a414a" fill="#fff"/><use xlink:href="#s" transform="matrix(1,0,0,1,1628,608) translate(24.53086419753086 36.44444444444444)"/><use xlink:href="#t" transform="matrix(1,0,0,1,1628,608) translate(97.12345679012346 36.44444444444444)"/><use xlink:href="#u" transform="matrix(1,0,0,1,1628,608) translate(120.51851851851852 36.44444444444444)"/><path d="M1573.3 764.1l-64.77 17.63-16.88 5.85-11.62 4.58-8.6 3.82-6.63 3.3-5.27 2.88-4.3 2.6-3.54 2.35-2.97 2.16-2.52 2-2.14 1.85-1.86 1.75-1.6 1.64-1.4 1.55-1.24 1.5-1.08 1.4-.96 1.38-.84 1.33-.3.5-.86-.5.3-.5.87-1.38.97-1.4 1.1-1.47 1.26-1.5 1.44-1.6 1.64-1.67 1.9-1.77 2.17-1.88 2.55-2.02 3-2.18 3.58-2.37 4.33-2.6 5.3-2.92 6.68-3.3 8.64-3.84 11.66-4.6 16.93-5.87 65.07-17.7zm167.2-83.1l-.03.8-.08 1.26-.14 1.25-.18 1.25-.23 1.22-.3 1.23-.34 1.23-.4 1.23-.45 1.24-.52 1.25-.6 1.28-.68 1.3-.77 1.32-.87 1.37-.97 1.4-1.1 1.47-1.26 1.5-1.44 1.6-1.64 1.67-1.9 1.77-2.17 1.88-2.55 2.02-3 2.18-3.58 2.37-4.33 2.6-5.3 2.92-6.68 3.3-8.64 3.84-11.66 4.6-16.93 5.86-29.47 8.82-35.4 9.63v-1.03l35.12-9.56 29.44-8.8 16.9-5.86 11.6-4.58 8.6-3.82 6.64-3.3 5.27-2.88 4.3-2.6 3.54-2.35 2.97-2.16 2.52-2 2.14-1.85 1.86-1.75 1.6-1.64 1.4-1.55 1.24-1.5 1.08-1.4.96-1.38.84-1.33.75-1.3.66-1.26.58-1.24.52-1.2.45-1.2.4-1.2.32-1.2.27-1.17.22-1.2.17-1.2.13-1.2.07-1.22.02-.76z" stroke="#3a414a" stroke-width=".05" fill="#3a414a"/><path d="M1740.5 681.03l-1-.02v-.5h1z" fill="#3a414a"/><path d="M1740.5 681.05l-1.04-.02v-.55h1.07zm-.98-.52v.45l.94.02v-.48z" stroke="#3a414a" stroke-width=".05" fill="#3a414a"/><path d="M1438.74 825.45l-8.3 12.5-.63-15z" fill="#3a414a"/><path d="M1439.54 825.15L1430 839.5l-.72-17.2zm-8.67 11.23l7.07-10.63-7.6-2.13z" stroke="#3a414a" stroke-width=".05" fill="#3a414a"/><use xlink:href="#o" transform="matrix(1,0,0,1,1573.3015415995044,749.7018225740292) translate(0 14.222222222222223)"/><path d="M1316 840c-8.84 0-16 7.16-16 16v48c0 8.84 7.16 16 16 16h228c8.84 0 16-7.16 16-16v-48c0-8.84-7.16-16-16-16z" stroke="#3a414a" fill="#fff"/><use xlink:href="#v" transform="matrix(1,0,0,1,1308,848) translate(12.308641975308646 36.44444444444444)"/><use xlink:href="#j" transform="matrix(1,0,0,1,1308,848) translate(87.49382716049382 36.44444444444444)"/><use xlink:href="#k" transform="matrix(1,0,0,1,1308,848) translate(121.99999999999999 36.44444444444444)"/><path d="M1919.7 780.87l11.18 4.96 8.2 4.07 6.38 3.5 5.12 3.1 4.2 2.78 3.52 2.55 3 2.36 2.54 2.2 2.22 2.08 1.93 1.97 1.68 1.88 1.5 1.8 1.3 1.74 1.18 1.68 1.04 1.64.93 1.6.82 1.57.5 1.05-.9.42-.5-1.03-.8-1.53-.9-1.56-1.02-1.6-1.15-1.65-1.3-1.7-1.46-1.77-1.66-1.85-1.9-1.94-2.18-2.06-2.53-2.17-2.95-2.34-3.5-2.53-4.16-2.77-5.08-3.07-6.33-3.47-8.17-4.06-11.13-4.94-44.14-15.56v-1.06zm-179.17-98.76l.1 1.6.16 1.53.22 1.52.3 1.5.33 1.5.42 1.47.48 1.48.55 1.48.63 1.5.7 1.5.82 1.55.9 1.56 1.02 1.6 1.15 1.65 1.3 1.7 1.46 1.77 1.66 1.85 1.9 1.94 2.18 2.06 2.53 2.17 2.95 2.34 3.5 2.53 4.16 2.77 5.08 3.07 6.33 3.47 8.17 4.06 11.14 4.95 17.08 6.73 26.82 9.46v1.05l-27.17-9.58-17.1-6.74-11.18-4.96-8.2-4.07-6.38-3.5-5.12-3.1-4.2-2.78-3.52-2.55-3-2.36-2.54-2.2-2.22-2.08-1.93-1.97-1.68-1.88-1.5-1.8-1.3-1.74-1.18-1.68-1.04-1.64-.93-1.6-.82-1.57-.73-1.54-.65-1.55-.57-1.52-.5-1.52-.4-1.5-.37-1.54-.3-1.54-.23-1.56-.16-1.6-.1-1.6-.03-1.15h1z" stroke="#3a414a" stroke-width=".05" fill="#3a414a"/><path d="M1740.5 681l-1 .03v-.53h1z" fill="#3a414a"/><path d="M1740.54 681.03l-1.05.02-.03-.57h1.06zm-1-.5v.47l.94-.02v-.46z" stroke="#3a414a" stroke-width=".05" fill="#3a414a"/><path d="M1979.65 837.92l-7.6-12.93 9.05-2z" fill="#3a414a"/><path d="M1980 839.5l-8.73-14.85 10.4-2.3zm-7.17-14.17l6.47 11 1.24-12.7z" stroke="#3a414a" stroke-width=".05" fill="#3a414a"/><use xlink:href="#m" transform="matrix(1,0,0,1,1844.5761919582205,749.6454581504082) translate(0 14.222222222222223)"/><path d="M1856 840c-8.84 0-16 7.16-16 16v48c0 8.84 7.16 16 16 16h248c8.84 0 16-7.16 16-16v-48c0-8.84-7.16-16-16-16z" stroke="#3a414a" fill="#fff"/><use xlink:href="#w" transform="matrix(1,0,0,1,1848,848) translate(14.253086419753089 36.44444444444444)"/><use xlink:href="#j" transform="matrix(1,0,0,1,1848,848) translate(105.54938271604938 36.44444444444444)"/><use xlink:href="#k" transform="matrix(1,0,0,1,1848,848) translate(140.05555555555554 36.44444444444444)"/><path d="M1430 921v113a6 6 0 0 0 6 6h229.6" stroke="#3a414a" fill="none"/><path d="M1430.5 921h-1v-.5h1z" stroke="#3a414a" stroke-width=".05" fill="#3a414a"/><path d="M1680.37 1040l-14.27 4.63v-9.27z" stroke="#3a414a" fill="#3a414a"/><path d="M1695.76 1024.24a6 6 0 0 1 8.48 0l11.52 11.52a6 6 0 0 1 0 8.48l-11.52 11.52a6 6 0 0 1-8.48 0l-11.52-11.52a6 6 0 0 1 0-8.48z" stroke="#3a414a" fill="#fff"/><path d="M1980 921v113a6 6 0 0 1-6 6h-239.6" stroke="#3a414a" fill="none"/><path d="M1980.5 921h-1v-.5h1z" stroke="#3a414a" stroke-width=".05" fill="#3a414a"/><path d="M1719.63 1040l14.27-4.63v9.27z" stroke="#3a414a" fill="#3a414a"/><path d="M1700 1058.52V1134a6 6 0 0 1-6 6h-599.6" stroke="#3a414a" fill="none"/><path d="M1700 1058.02l.5-.04v.55h-1v-.55z" stroke="#3a414a" stroke-width=".05" fill="#3a414a"/><path d="M1079.63 1140l14.27-4.63v9.27z" stroke="#3a414a" fill="#3a414a"/><path d="M1055.76 1124.24a6 6 0 0 1 8.48 0l11.52 11.52a6 6 0 0 1 0 8.48l-11.52 11.52a6 6 0 0 1-8.48 0l-11.52-11.52a6 6 0 0 1 0-8.48z" stroke="#3a414a" fill="#fff"/><path d="M740 681v453a6 6 0 0 0 6 6h279.6" stroke="#3a414a" fill="none"/><path d="M740.5 681h-1v-.5h1z" stroke="#3a414a" stroke-width=".05" fill="#3a414a"/><path d="M1040.37 1140l-14.27 4.63v-9.27z" stroke="#3a414a" fill="#3a414a"/><path d="M1060 1158.52V1234a6 6 0 0 1-6 6H634.4" stroke="#3a414a" fill="none"/><path d="M1060 1158.02l.5-.04v.55h-1v-.55z" stroke="#3a414a" stroke-width=".05" fill="#3a414a"/><path d="M619.63 1240l14.27-4.63v9.27z" stroke="#3a414a" fill="#3a414a"/><path d="M595.76 1224.24a6 6 0 0 1 8.48 0l11.52 11.52a6 6 0 0 1 0 8.48l-11.52 11.52a6 6 0 0 1-8.48 0l-11.52-11.52a6 6 0 0 1 0-8.48z" stroke="#3a414a" fill="#fff"/><path d="M420 481v753a6 6 0 0 0 6 6h139.6" stroke="#3a414a" fill="none"/><path d="M420.5 481h-1v-.5h1z" stroke="#3a414a" stroke-width=".05" fill="#3a414a"/><path d="M580.37 1240l-14.27 4.63v-9.27z" stroke="#3a414a" fill="#3a414a"/><path d="M600.5 1483.12h-1v-93.7h1zm0-115.03h-1V1258.5h1z" stroke="#3a414a" stroke-width=".05" fill="#3a414a"/><path d="M600 1258.02l.5-.04v.55h-1v-.55z" fill="#3a414a"/><path d="M600 1258l.52-.05v.6h-1.04v-.6zm-.48.5h.96v-.5l-.48.04-.48-.04z" stroke="#3a414a" stroke-width=".05" fill="#3a414a"/><path d="M600 1497.88l-4.63-14.26h9.26z" fill="#3a414a"/><path d="M600 1499.5l-5.32-16.38h10.64zm-3.95-15.38l3.95 12.14 3.95-12.14z" stroke="#3a414a" stroke-width=".05" fill="#3a414a"/><use xlink:href="#m" transform="matrix(1,0,0,1,584.6913580246913,1368.091450234118) translate(0 14.222222222222223)"/><path d="M466 1500c-8.84 0-16 7.16-16 16v48c0 8.84 7.16 16 16 16h268c8.84 0 16-7.16 16-16v-48c0-8.84-7.16-16-16-16z" stroke="#3a414a" fill="#fff"/><use xlink:href="#x" transform="matrix(1,0,0,1,458,1508) translate(33.450617283950606 36.44444444444444)"/><use xlink:href="#y" transform="matrix(1,0,0,1,458,1508) translate(149.3148148148148 36.44444444444444)"/><path d="M449 1540H206a6 6 0 0 0-6 6v57.12" stroke="#3a414a" fill="none"/><path d="M449.5 1540.5h-.5v-1h.5z" stroke="#3a414a" stroke-width=".05" fill="#3a414a"/><path d="M200 1617.88l-4.63-14.26h9.26z" stroke="#3a414a" fill="#3a414a"/><path d="M66 1620c-8.84 0-16 7.16-16 16v48c0 8.84 7.16 16 16 16h268c8.84 0 16-7.16 16-16v-48c0-8.84-7.16-16-16-16z" stroke="#3a414a" fill="#fff"/><use xlink:href="#x" transform="matrix(1,0,0,1,58,1628) translate(8.820987654320987 36.44444444444444)"/><use xlink:href="#z" transform="matrix(1,0,0,1,58,1628) translate(124.68518518518519 36.44444444444444)"/><use xlink:href="#A" transform="matrix(1,0,0,1,58,1628) translate(167.89506172839506 36.44444444444444)"/><path d="M751 1540h253a6 6 0 0 1 6 6v57.12" stroke="#3a414a" fill="none"/><path d="M751 1540.5h-.5v-1h.5z" stroke="#3a414a" stroke-width=".05" fill="#3a414a"/><path d="M1010 1617.88l-4.63-14.26h9.26z" stroke="#3a414a" fill="#3a414a"/><path d="M876 1620c-8.84 0-16 7.16-16 16v48c0 8.84 7.16 16 16 16h268c8.84 0 16-7.16 16-16v-48c0-8.84-7.16-16-16-16z" stroke="#3a414a" fill="#fff"/><use xlink:href="#B" transform="matrix(1,0,0,1,868,1628) translate(13.851851851851848 36.44444444444444)"/><use xlink:href="#j" transform="matrix(1,0,0,1,868,1628) translate(125.95061728395062 36.44444444444444)"/><use xlink:href="#k" transform="matrix(1,0,0,1,868,1628) translate(160.45679012345678 36.44444444444444)"/><path d="M1010 1701v102.12" stroke="#3a414a" fill="none"/><path d="M1010.5 1701h-1v-.5h1z" stroke="#3a414a" stroke-width=".05" fill="#3a414a"/><path d="M1010 1817.88l-4.63-14.26h9.26z" stroke="#3a414a" fill="#3a414a"/><path d="M771 1820c-8.84 0-16 7.16-16 16v48c0 8.84 7.16 16 16 16h478c8.84 0 16-7.16 16-16v-48c0-8.84-7.16-16-16-16z" stroke="#3a414a" fill="#fff"/><use xlink:href="#C" transform="matrix(1,0,0,1,763,1828) translate(27.185185185185162 36.44444444444444)"/><use xlink:href="#D" transform="matrix(1,0,0,1,763,1828) translate(76.56790123456787 36.44444444444444)"/><use xlink:href="#E" transform="matrix(1,0,0,1,763,1828) translate(159.16049382716048 36.44444444444444)"/><use xlink:href="#F" transform="matrix(1,0,0,1,763,1828) translate(178.29629629629628 36.44444444444444)"/><use xlink:href="#G" transform="matrix(1,0,0,1,763,1828) translate(265.7654320987654 36.44444444444444)"/><use xlink:href="#H" transform="matrix(1,0,0,1,763,1828) translate(315.14814814814815 36.44444444444444)"/><use xlink:href="#k" transform="matrix(1,0,0,1,763,1828) translate(357.12345679012344 36.44444444444444)"/><path d="M1515.02 1859.58l1 .24.93.4.87.52.78.66.66.78.53.87.38.94.24.98.08 1v37.14h-1v-37.1l-.07-.88-.2-.84-.33-.8-.45-.73-.56-.66-.67-.55-.73-.45-.8-.33-.84-.2-.88-.07h-132.92v-1h132.96zm-249.02.92v-1h91.45v1z" stroke="#3a414a" stroke-width=".05" fill="#3a414a"/><path d="M1266 1860.5h-.5v-1h.5z" fill="#3a414a"/><path d="M1266.04 1860.53h-.57v-1.06h.57zm-.5-1v.94h.45v-.94z" stroke="#3a414a" stroke-width=".05" fill="#3a414a"/><path d="M1520 1917.88l-4.63-14.26h9.27z" fill="#3a414a"/><path d="M1520 1919.5l-5.32-16.38h10.64zm-3.95-15.38l3.95 12.14 3.95-12.14z" stroke="#3a414a" stroke-width=".05" fill="#3a414a"/><use xlink:href="#o" transform="matrix(1,0,0,1,1357.4505880057766,1849.3333333333333) translate(0 14.222222222222223)"/><path d="M1456 1920c-8.84 0-16 7.16-16 16v48c0 8.84 7.16 16 16 16h128c8.84 0 16-7.16 16-16v-48c0-8.84-7.16-16-16-16z" stroke="#3a414a" fill="#fff"/><use xlink:href="#I" transform="matrix(1,0,0,1,1448,1928) translate(41.81481481481482 36.44444444444444)"/><path d="M651.95 1860.5h-55.93l-.88.07-.84.2-.8.33-.73.45-.66.56-.55.67-.45.73-.33.8-.2.84-.07.88v37.1h-1v-37.14l.08-1 .24-1 .4-.93.52-.87.66-.78.78-.66.87-.53.94-.38.98-.24 1-.08h55.97zm102.05 0h-71.44v-1H754z" stroke="#3a414a" stroke-width=".05" fill="#3a414a"/><path d="M754.5 1860.5h-.5v-1h.5z" fill="#3a414a"/><path d="M754.52 1860.53h-.56v-1.06h.56zm-.5-1v.94h.46v-.94z" stroke="#3a414a" stroke-width=".05" fill="#3a414a"/><path d="M590 1917.88l-4.63-14.26h9.26z" fill="#3a414a"/><path d="M590 1919.5l-5.32-16.38h10.64zm-3.95-15.38l3.95 12.14 3.95-12.14z" stroke="#3a414a" stroke-width=".05" fill="#3a414a"/><g><use xlink:href="#m" transform="matrix(1,0,0,1,651.944685053243,1849.3333333333333) translate(0 14.222222222222223)"/></g><path d="M446 1920c-8.84 0-16 7.16-16 16v48c0 8.84 7.16 16 16 16h288c8.84 0 16-7.16 16-16v-48c0-8.84-7.16-16-16-16z" stroke="#3a414a" fill="#fff"/><g><use xlink:href="#J" transform="matrix(1,0,0,1,438,1928) translate(29.993827160493822 36.44444444444444)"/><use xlink:href="#j" transform="matrix(1,0,0,1,438,1928) translate(129.80864197530866 36.44444444444444)"/><use xlink:href="#k" transform="matrix(1,0,0,1,438,1928) translate(164.3148148148148 36.44444444444444)"/></g><path d="M590 2001v193a6 6 0 0 0 6 6h229.6" stroke="#3a414a" fill="none"/><path d="M590.5 2001h-1v-.5h1z" stroke="#3a414a" stroke-width=".05" fill="#3a414a"/><path d="M840.37 2200l-14.27 4.64v-9.28z" stroke="#3a414a" fill="#3a414a"/><path d="M855.76 2184.24a6 6 0 0 1 8.48 0l11.52 11.52a6 6 0 0 1 0 8.48l-11.52 11.52a6 6 0 0 1-8.48 0l-11.52-11.52a6 6 0 0 1 0-8.48z" stroke="#3a414a" fill="#fff"/><path d="M1520 2001v193a6 6 0 0 1-6 6H894.4" stroke="#3a414a" fill="none"/><path d="M1520.5 2001h-1v-.5h1z" stroke="#3a414a" stroke-width=".05" fill="#3a414a"/><path d="M879.63 2200l14.27-4.64v9.28z" stroke="#3a414a" fill="#3a414a"/><path d="M860 2218.52V2294a6 6 0 0 1-6 6H314.4" stroke="#3a414a" fill="none"/><path d="M860 2218.02l.5-.04v.55h-1v-.55z" stroke="#3a414a" stroke-width=".05" fill="#3a414a"/><path d="M299.63 2300l14.27-4.64v9.28z" stroke="#3a414a" fill="#3a414a"/><path d="M275.76 2284.24a6 6 0 0 1 8.48 0l11.52 11.52a6 6 0 0 1 0 8.48l-11.52 11.52a6 6 0 0 1-8.48 0l-11.52-11.52a6 6 0 0 1 0-8.48z" stroke="#3a414a" fill="#fff"/><path d="M200 1701v593a6 6 0 0 0 6 6h39.6" stroke="#3a414a" fill="none"/><path d="M200.5 1701h-1v-.5h1z" stroke="#3a414a" stroke-width=".05" fill="#3a414a"/><path d="M260.37 2300l-14.27 4.64v-9.28z" stroke="#3a414a" fill="#3a414a"/><path d="M280.5 2453.98l.07.88.2.84.33.8.45.73.56.66.67.55.73.45.8.33.84.2.88.07H453.7v1H285.98l-1-.08-1-.24-.93-.4-.87-.52-.78-.66-.66-.78-.53-.87-.38-.94-.24-.98-.08-1v-135.5h1zm503.12 5.52v1h-299.3v-1z" stroke="#3a414a" stroke-width=".05" fill="#3a414a"/><path d="M280 2318.02l.5-.04v.55h-1v-.55z" fill="#3a414a"/><path d="M280 2318l.52-.05v.6h-1.04v-.6zm-.48.5h.96v-.5l-.48.04-.48-.04z" stroke="#3a414a" stroke-width=".05" fill="#3a414a"/><path d="M798.38 2460l-14.26 4.64v-9.28z" fill="#3a414a"/><path d="M800 2460l-16.38 5.32v-10.64zm-15.38 3.95l12.14-3.95-12.14-3.95z" stroke="#3a414a" stroke-width=".05" fill="#3a414a"/><g><use xlink:href="#m" transform="matrix(1,0,0,1,453.699474925476,2449.3333333333335) translate(0 14.222222222222223)"/></g><path d="M840 2460c0 11.05-8.95 20-20 20s-20-8.95-20-20 8.95-20 20-20 20 8.95 20 20z" stroke="#3a414a" fill="#fff"/><path d="M832 2460c0 6.63-5.37 12-12 12s-12-5.37-12-12 5.37-12 12-12 12 5.37 12 12z" stroke="#3a414a"/><defs><path fill="#3a414a" d="M135-143c-3-34-86-38-87 0 15 53 115 12 119 90S17 21 10-45l28-5c4 36 97 45 98 0-10-56-113-15-118-90-4-57 82-63 122-42 12 7 21 19 24 35" id="K"/><path fill="#3a414a" d="M100-194c63 0 86 42 84 106H49c0 40 14 67 53 68 26 1 43-12 49-29l28 8c-11 28-37 45-77 45C44 4 14-33 15-96c1-61 26-98 85-98zm52 81c6-60-76-77-97-28-3 7-6 17-6 28h103" id="L"/><g id="a"><use transform="matrix(0.06172839506172839,0,0,0.06172839506172839,0,0)" xlink:href="#K"/><use transform="matrix(0.06172839506172839,0,0,0.06172839506172839,11.11111111111111,0)" xlink:href="#L"/></g><path fill="#3a414a" d="M96-169c-40 0-48 33-48 73s9 75 48 75c24 0 41-14 43-38l32 2c-6 37-31 61-74 61-59 0-76-41-82-99-10-93 101-131 147-64 4 7 5 14 7 22l-32 3c-4-21-16-35-41-35" id="M"/><path fill="#3a414a" d="M100-194c62-1 85 37 85 99 1 63-27 99-86 99S16-35 15-95c0-66 28-99 85-99zM99-20c44 1 53-31 53-75 0-43-8-75-51-75s-53 32-53 75 10 74 51 75" id="N"/><path fill="#3a414a" d="M117-194c89-4 53 116 60 194h-32v-121c0-31-8-49-39-48C34-167 62-67 57 0H25l-1-190h30c1 10-1 24 2 32 11-22 29-35 61-36" id="O"/><path fill="#3a414a" d="M59-47c-2 24 18 29 38 22v24C64 9 27 4 27-40v-127H5v-23h24l9-43h21v43h35v23H59v120" id="P"/><path fill="#3a414a" d="M114-163C36-179 61-72 57 0H25l-1-190h30c1 12-1 29 2 39 6-27 23-49 58-41v29" id="Q"/><g id="b"><use transform="matrix(0.06172839506172839,0,0,0.06172839506172839,0,0)" xlink:href="#M"/><use transform="matrix(0.06172839506172839,0,0,0.06172839506172839,11.11111111111111,0)" xlink:href="#N"/><use transform="matrix(0.06172839506172839,0,0,0.06172839506172839,23.45679012345679,0)" xlink:href="#O"/><use transform="matrix(0.06172839506172839,0,0,0.06172839506172839,35.80246913580247,0)" xlink:href="#O"/><use transform="matrix(0.06172839506172839,0,0,0.06172839506172839,48.148148148148145,0)" xlink:href="#L"/><use transform="matrix(0.06172839506172839,0,0,0.06172839506172839,60.49382716049382,0)" xlink:href="#M"/><use transform="matrix(0.06172839506172839,0,0,0.06172839506172839,71.60493827160494,0)" xlink:href="#P"/><use transform="matrix(0.06172839506172839,0,0,0.06172839506172839,77.77777777777777,0)" xlink:href="#L"/><use transform="matrix(0.06172839506172839,0,0,0.06172839506172839,90.12345679012346,0)" xlink:href="#Q"/></g><g id="c"><use transform="matrix(0.06172839506172839,0,0,0.06172839506172839,0,0)" xlink:href="#L"/><use transform="matrix(0.06172839506172839,0,0,0.06172839506172839,12.345679012345679,0)" xlink:href="#O"/><use transform="matrix(0.06172839506172839,0,0,0.06172839506172839,24.691358024691358,0)" xlink:href="#P"/><use transform="matrix(0.06172839506172839,0,0,0.06172839506172839,30.864197530864196,0)" xlink:href="#Q"/><use transform="matrix(0.06172839506172839,0,0,0.06172839506172839,38.20987654320987,0)" xlink:href="#L"/></g><path fill="#3a414a" d="M134-131c28 9 52 24 51 62-1 50-34 73-85 73S17-19 16-69c0-36 21-54 49-61-75-25-45-126 34-121 46 3 78 18 79 63 0 33-17 51-44 57zm-34-11c31 1 46-15 46-44 0-28-17-43-47-42-29 0-46 13-45 42 1 28 16 44 46 44zm1 122c35 0 51-18 51-52 0-30-18-46-53-46-33 0-51 17-51 47 0 34 19 51 53 51" id="R"/><use transform="matrix(0.06172839506172839,0,0,0.06172839506172839,0,0)" xlink:href="#R" id="d"/><path fill="#3a414a" d="M205 0l-28-72H64L36 0H1l101-248h38L239 0h-34zm-38-99l-47-123c-12 45-31 82-46 123h93" id="S"/><path fill="#3a414a" d="M240 0l2-218c-23 76-54 145-80 218h-23L58-218 59 0H30v-248h44l77 211c21-75 51-140 76-211h43V0h-30" id="T"/><g id="e"><use transform="matrix(0.06172839506172839,0,0,0.06172839506172839,0,0)" xlink:href="#S"/><use transform="matrix(0.06172839506172839,0,0,0.06172839506172839,14.814814814814813,0)" xlink:href="#T"/></g><g id="f"><use transform="matrix(0.06172839506172839,0,0,0.06172839506172839,0,0)" xlink:href="#L"/><use transform="matrix(0.06172839506172839,0,0,0.06172839506172839,12.345679012345679,0)" xlink:href="#P"/></g><path fill="#3a414a" d="M27 0v-27h64v-190l-56 39v-29l58-41h29v221h61V0H27" id="U"/><path fill="#3a414a" d="M101-251c82-7 93 87 43 132L82-64C71-53 59-42 53-27h129V0H18c2-99 128-94 128-182 0-28-16-43-45-43s-46 15-49 41l-32-3c6-41 34-60 81-64" id="V"/><g id="g"><use transform="matrix(0.06172839506172839,0,0,0.06172839506172839,0,0)" xlink:href="#U"/><use transform="matrix(0.06172839506172839,0,0,0.06172839506172839,12.345679012345679,0)" xlink:href="#V"/></g><g id="h"><use transform="matrix(0.06172839506172839,0,0,0.06172839506172839,0,0)" xlink:href="#S"/><use transform="matrix(0.06172839506172839,0,0,0.06172839506172839,14.814814814814813,0)" xlink:href="#T"/></g><path fill="#3a414a" d="M84 4C-5 8 30-112 23-190h32v120c0 31 7 50 39 49 72-2 45-101 50-169h31l1 190h-30c-1-10 1-25-2-33-11 22-28 36-60 37" id="W"/><path fill="#3a414a" d="M24 0v-261h32V0H24" id="X"/><g id="i"><use transform="matrix(0.06172839506172839,0,0,0.06172839506172839,0,0)" xlink:href="#M"/><use transform="matrix(0.06172839506172839,0,0,0.06172839506172839,11.11111111111111,0)" xlink:href="#N"/><use transform="matrix(0.06172839506172839,0,0,0.06172839506172839,23.45679012345679,0)" xlink:href="#O"/><use transform="matrix(0.06172839506172839,0,0,0.06172839506172839,35.80246913580247,0)" xlink:href="#K"/><use transform="matrix(0.06172839506172839,0,0,0.06172839506172839,46.91358024691358,0)" xlink:href="#W"/><use transform="matrix(0.06172839506172839,0,0,0.06172839506172839,59.25925925925926,0)" xlink:href="#X"/><use transform="matrix(0.06172839506172839,0,0,0.06172839506172839,64.1358024691358,0)" xlink:href="#P"/><use transform="matrix(0.06172839506172839,0,0,0.06172839506172839,70.30864197530863,0)" xlink:href="#L"/><use transform="matrix(0.06172839506172839,0,0,0.06172839506172839,82.65432098765432,0)" xlink:href="#Q"/></g><g id="j"><use transform="matrix(0.06172839506172839,0,0,0.06172839506172839,0,0)" xlink:href="#X"/><use transform="matrix(0.06172839506172839,0,0,0.06172839506172839,4.876543209876543,0)" xlink:href="#L"/><use transform="matrix(0.06172839506172839,0,0,0.06172839506172839,17.22222222222222,0)" xlink:href="#K"/></g><path fill="#3a414a" d="M115-194c55 1 70 41 70 98S169 2 115 4C84 4 66-9 55-30l1 105H24l-1-265h31l2 30c10-21 28-34 59-34zm-8 174c40 0 45-34 45-75s-6-73-45-74c-42 0-51 32-51 76 0 43 10 73 51 73" id="Y"/><path fill="#3a414a" d="M210-169c-67 3-38 105-44 169h-31v-121c0-29-5-50-35-48C34-165 62-65 56 0H25l-1-190h30c1 10-1 24 2 32 10-44 99-50 107 0 11-21 27-35 58-36 85-2 47 119 55 194h-31v-121c0-29-5-49-35-48" id="Z"/><path fill="#3a414a" d="M24-231v-30h32v30H24zM24 0v-190h32V0H24" id="aa"/><g id="k"><use transform="matrix(0.06172839506172839,0,0,0.06172839506172839,0,0)" xlink:href="#Y"/><use transform="matrix(0.06172839506172839,0,0,0.06172839506172839,12.345679012345679,0)" xlink:href="#Q"/><use transform="matrix(0.06172839506172839,0,0,0.06172839506172839,19.691358024691358,0)" xlink:href="#N"/><use transform="matrix(0.06172839506172839,0,0,0.06172839506172839,32.03703703703704,0)" xlink:href="#Z"/><use transform="matrix(0.06172839506172839,0,0,0.06172839506172839,50.49382716049382,0)" xlink:href="#N"/><use transform="matrix(0.06172839506172839,0,0,0.06172839506172839,62.8395061728395,0)" xlink:href="#P"/><use transform="matrix(0.06172839506172839,0,0,0.06172839506172839,69.01234567901234,0)" xlink:href="#aa"/><use transform="matrix(0.06172839506172839,0,0,0.06172839506172839,73.88888888888889,0)" xlink:href="#N"/><use transform="matrix(0.06172839506172839,0,0,0.06172839506172839,86.23456790123457,0)" xlink:href="#O"/><use transform="matrix(0.06172839506172839,0,0,0.06172839506172839,98.58024691358025,0)" xlink:href="#K"/></g><path fill="#3a414a" d="M33 0v-248h34V0H33" id="ab"/><path fill="#3a414a" d="M85-194c31 0 48 13 60 33l-1-100h32l1 261h-30c-2-10 0-23-3-31C134-8 116 4 85 4 32 4 16-35 15-94c0-66 23-100 70-100zm9 24c-40 0-46 34-46 75 0 40 6 74 45 74 42 0 51-32 51-76 0-42-9-74-50-73" id="ac"/><path fill="#3a414a" d="M115-194c53 0 69 39 70 98 0 66-23 100-70 100C84 3 66-7 56-30L54 0H23l1-261h32v101c10-23 28-34 59-34zm-8 174c40 0 45-34 45-75 0-40-5-75-45-74-42 0-51 32-51 76 0 43 10 73 51 73" id="ad"/><g id="l"><use transform="matrix(0.06172839506172839,0,0,0.06172839506172839,0,0)" xlink:href="#ab"/><use transform="matrix(0.06172839506172839,0,0,0.06172839506172839,6.172839506172839,0)" xlink:href="#O"/><use transform="matrix(0.06172839506172839,0,0,0.06172839506172839,18.51851851851852,0)" xlink:href="#ac"/><use transform="matrix(0.06172839506172839,0,0,0.06172839506172839,30.864197530864196,0)" xlink:href="#aa"/><use transform="matrix(0.06172839506172839,0,0,0.06172839506172839,35.74074074074074,0)" xlink:href="#K"/><use transform="matrix(0.06172839506172839,0,0,0.06172839506172839,46.85185185185185,0)" xlink:href="#Y"/><use transform="matrix(0.06172839506172839,0,0,0.06172839506172839,59.197530864197525,0)" xlink:href="#N"/><use transform="matrix(0.06172839506172839,0,0,0.06172839506172839,71.5432098765432,0)" xlink:href="#O"/><use transform="matrix(0.06172839506172839,0,0,0.06172839506172839,83.88888888888889,0)" xlink:href="#aa"/><use transform="matrix(0.06172839506172839,0,0,0.06172839506172839,88.76543209876543,0)" xlink:href="#ad"/><use transform="matrix(0.06172839506172839,0,0,0.06172839506172839,101.11111111111111,0)" xlink:href="#X"/><use transform="matrix(0.06172839506172839,0,0,0.06172839506172839,105.98765432098766,0)" xlink:href="#L"/></g><path fill="#333" d="M146-102V0H94v-102L6-248h54l60 105 60-105h54" id="ae"/><path fill="#333" d="M185-48c-13 30-37 53-82 52C43 2 14-33 14-96s30-98 90-98c62 0 83 45 84 108H66c0 31 8 55 39 56 18 0 30-7 34-22zm-45-69c5-46-57-63-70-21-2 6-4 13-4 21h74" id="af"/><path fill="#333" d="M137-138c1-29-70-34-71-4 15 46 118 7 119 86 1 83-164 76-172 9l43-7c4 19 20 25 44 25 33 8 57-30 24-41C81-84 22-81 20-136c-2-80 154-74 161-7" id="ag"/><g id="m"><use transform="matrix(0.04938271604938272,0,0,0.04938271604938272,0,0)" xlink:href="#ae"/><use transform="matrix(0.04938271604938272,0,0,0.04938271604938272,10.864197530864198,0)" xlink:href="#af"/><use transform="matrix(0.04938271604938272,0,0,0.04938271604938272,20.74074074074074,0)" xlink:href="#ag"/></g><path fill="#3a414a" d="M141-36C126-15 110 5 73 4 37 3 15-17 15-53c-1-64 63-63 125-63 3-35-9-54-41-54-24 1-41 7-42 31l-33-3c5-37 33-52 76-52 45 0 72 20 72 64v82c-1 20 7 32 28 27v20c-31 9-61-2-59-35zM48-53c0 20 12 33 32 33 41-3 63-29 60-74-43 2-92-5-92 41" id="ah"/><g id="n"><use transform="matrix(0.06172839506172839,0,0,0.06172839506172839,0,0)" xlink:href="#ah"/><use transform="matrix(0.06172839506172839,0,0,0.06172839506172839,12.345679012345679,0)" xlink:href="#M"/><use transform="matrix(0.06172839506172839,0,0,0.06172839506172839,23.45679012345679,0)" xlink:href="#M"/><use transform="matrix(0.06172839506172839,0,0,0.06172839506172839,34.5679012345679,0)" xlink:href="#L"/><use transform="matrix(0.06172839506172839,0,0,0.06172839506172839,46.913580246913575,0)" xlink:href="#Y"/><use transform="matrix(0.06172839506172839,0,0,0.06172839506172839,59.25925925925925,0)" xlink:href="#P"/><use transform="matrix(0.06172839506172839,0,0,0.06172839506172839,65.43209876543209,0)" xlink:href="#L"/><use transform="matrix(0.06172839506172839,0,0,0.06172839506172839,77.77777777777777,0)" xlink:href="#Q"/></g><path fill="#333" d="M175 0L67-191c6 58 2 128 3 191H24v-248h59L193-55c-6-58-2-129-3-193h46V0h-61" id="ai"/><path fill="#333" d="M110-194c64 0 96 36 96 99 0 64-35 99-97 99-61 0-95-36-95-99 0-62 34-99 96-99zm-1 164c35 0 45-28 45-65 0-40-10-65-43-65-34 0-45 26-45 65 0 36 10 65 43 65" id="aj"/><g id="o"><use transform="matrix(0.04938271604938272,0,0,0.04938271604938272,0,0)" xlink:href="#ai"/><use transform="matrix(0.04938271604938272,0,0,0.04938271604938272,12.790123456790125,0)" xlink:href="#aj"/></g><g id="p"><use transform="matrix(0.06172839506172839,0,0,0.06172839506172839,0,0)" xlink:href="#O"/><use transform="matrix(0.06172839506172839,0,0,0.06172839506172839,12.345679012345679,0)" xlink:href="#L"/></g><path fill="#3a414a" d="M101-234c-31-9-42 10-38 44h38v23H63V0H32v-167H5v-23h27c-7-52 17-82 69-68v24" id="ak"/><g id="q"><use transform="matrix(0.06172839506172839,0,0,0.06172839506172839,0,0)" xlink:href="#ak"/><use transform="matrix(0.06172839506172839,0,0,0.06172839506172839,6.172839506172839,0)" xlink:href="#N"/><use transform="matrix(0.06172839506172839,0,0,0.06172839506172839,18.51851851851852,0)" xlink:href="#O"/><use transform="matrix(0.06172839506172839,0,0,0.06172839506172839,30.864197530864196,0)" xlink:href="#P"/></g><g id="r"><use transform="matrix(0.06172839506172839,0,0,0.06172839506172839,0,0)" xlink:href="#Q"/><use transform="matrix(0.06172839506172839,0,0,0.06172839506172839,7.345679012345679,0)" xlink:href="#aa"/><use transform="matrix(0.06172839506172839,0,0,0.06172839506172839,12.222222222222221,0)" xlink:href="#L"/><use transform="matrix(0.06172839506172839,0,0,0.06172839506172839,24.5679012345679,0)" xlink:href="#O"/></g><path fill="#3a414a" d="M108 0H70L1-190h34L89-25l56-165h34" id="al"/><path fill="#3a414a" d="M100-194c63 0 86 42 84 106H49c0 40 14 67 53 68 26 1 43-12 49-29l28 8c-11 28-37 45-77 45C44 4 14-33 15-96c1-61 26-98 85-98zm52 81c6-60-76-77-97-28-3 7-6 17-6 28h103zm-74-98c8-23 27-35 38-54h36v5l-58 49H78" id="am"/><g id="s"><use transform="matrix(0.06172839506172839,0,0,0.06172839506172839,0,0)" xlink:href="#al"/><use transform="matrix(0.06172839506172839,0,0,0.06172839506172839,11.11111111111111,0)" xlink:href="#am"/><use transform="matrix(0.06172839506172839,0,0,0.06172839506172839,23.45679012345679,0)" xlink:href="#Q"/><use transform="matrix(0.06172839506172839,0,0,0.06172839506172839,30.80246913580247,0)" xlink:href="#aa"/><use transform="matrix(0.06172839506172839,0,0,0.06172839506172839,35.67901234567901,0)" xlink:href="#ak"/><use transform="matrix(0.06172839506172839,0,0,0.06172839506172839,41.851851851851855,0)" xlink:href="#aa"/><use transform="matrix(0.06172839506172839,0,0,0.06172839506172839,46.7283950617284,0)" xlink:href="#L"/><use transform="matrix(0.06172839506172839,0,0,0.06172839506172839,59.074074074074076,0)" xlink:href="#Q"/></g><g id="t"><use transform="matrix(0.06172839506172839,0,0,0.06172839506172839,0,0)" xlink:href="#X"/><use transform="matrix(0.06172839506172839,0,0,0.06172839506172839,4.876543209876543,0)" xlink:href="#ah"/></g><path fill="#3a414a" d="M145-31C134-9 116 4 85 4 32 4 16-35 15-94c0-59 17-99 70-100 32-1 48 14 60 33 0-11-1-24 2-32h30l-1 268h-32zM93-21c41 0 51-33 51-76s-8-73-50-73c-40 0-46 35-46 75s5 74 45 74" id="an"/><g id="u"><use transform="matrix(0.06172839506172839,0,0,0.06172839506172839,0,0)" xlink:href="#an"/><use transform="matrix(0.06172839506172839,0,0,0.06172839506172839,12.345679012345679,0)" xlink:href="#W"/><use transform="matrix(0.06172839506172839,0,0,0.06172839506172839,24.691358024691358,0)" xlink:href="#ah"/><use transform="matrix(0.06172839506172839,0,0,0.06172839506172839,37.03703703703704,0)" xlink:href="#O"/><use transform="matrix(0.06172839506172839,0,0,0.06172839506172839,49.382716049382715,0)" xlink:href="#P"/><use transform="matrix(0.06172839506172839,0,0,0.06172839506172839,55.55555555555556,0)" xlink:href="#aa"/><use transform="matrix(0.06172839506172839,0,0,0.06172839506172839,60.4320987654321,0)" xlink:href="#P"/><use transform="matrix(0.06172839506172839,0,0,0.06172839506172839,66.60493827160494,0)" xlink:href="#am"/></g><g id="v"><use transform="matrix(0.06172839506172839,0,0,0.06172839506172839,0,0)" xlink:href="#Q"/><use transform="matrix(0.06172839506172839,0,0,0.06172839506172839,7.345679012345679,0)" xlink:href="#L"/><use transform="matrix(0.06172839506172839,0,0,0.06172839506172839,19.691358024691358,0)" xlink:href="#ak"/><use transform="matrix(0.06172839506172839,0,0,0.06172839506172839,25.864197530864196,0)" xlink:href="#W"/><use transform="matrix(0.06172839506172839,0,0,0.06172839506172839,38.20987654320987,0)" xlink:href="#K"/><use transform="matrix(0.06172839506172839,0,0,0.06172839506172839,49.32098765432099,0)" xlink:href="#L"/><use transform="matrix(0.06172839506172839,0,0,0.06172839506172839,61.666666666666664,0)" xlink:href="#Q"/></g><g id="w"><use transform="matrix(0.06172839506172839,0,0,0.06172839506172839,0,0)" xlink:href="#ah"/><use transform="matrix(0.06172839506172839,0,0,0.06172839506172839,12.345679012345679,0)" xlink:href="#M"/><use transform="matrix(0.06172839506172839,0,0,0.06172839506172839,23.45679012345679,0)" xlink:href="#M"/><use transform="matrix(0.06172839506172839,0,0,0.06172839506172839,34.5679012345679,0)" xlink:href="#L"/><use transform="matrix(0.06172839506172839,0,0,0.06172839506172839,46.913580246913575,0)" xlink:href="#Y"/><use transform="matrix(0.06172839506172839,0,0,0.06172839506172839,59.25925925925925,0)" xlink:href="#P"/><use transform="matrix(0.06172839506172839,0,0,0.06172839506172839,65.43209876543209,0)" xlink:href="#L"/><use transform="matrix(0.06172839506172839,0,0,0.06172839506172839,77.77777777777777,0)" xlink:href="#Q"/></g><g id="x"><use transform="matrix(0.06172839506172839,0,0,0.06172839506172839,0,0)" xlink:href="#Y"/><use transform="matrix(0.06172839506172839,0,0,0.06172839506172839,12.345679012345679,0)" xlink:href="#Q"/><use transform="matrix(0.06172839506172839,0,0,0.06172839506172839,19.691358024691358,0)" xlink:href="#N"/><use transform="matrix(0.06172839506172839,0,0,0.06172839506172839,32.03703703703704,0)" xlink:href="#Z"/><use transform="matrix(0.06172839506172839,0,0,0.06172839506172839,50.49382716049382,0)" xlink:href="#N"/><use transform="matrix(0.06172839506172839,0,0,0.06172839506172839,62.8395061728395,0)" xlink:href="#P"/><use transform="matrix(0.06172839506172839,0,0,0.06172839506172839,69.01234567901234,0)" xlink:href="#aa"/><use transform="matrix(0.06172839506172839,0,0,0.06172839506172839,73.88888888888889,0)" xlink:href="#N"/><use transform="matrix(0.06172839506172839,0,0,0.06172839506172839,86.23456790123457,0)" xlink:href="#O"/><use transform="matrix(0.06172839506172839,0,0,0.06172839506172839,98.58024691358025,0)" xlink:href="#K"/></g><g id="y"><use transform="matrix(0.06172839506172839,0,0,0.06172839506172839,0,0)" xlink:href="#ah"/><use transform="matrix(0.06172839506172839,0,0,0.06172839506172839,12.345679012345679,0)" xlink:href="#M"/><use transform="matrix(0.06172839506172839,0,0,0.06172839506172839,23.45679012345679,0)" xlink:href="#M"/><use transform="matrix(0.06172839506172839,0,0,0.06172839506172839,34.5679012345679,0)" xlink:href="#L"/><use transform="matrix(0.06172839506172839,0,0,0.06172839506172839,46.913580246913575,0)" xlink:href="#Y"/><use transform="matrix(0.06172839506172839,0,0,0.06172839506172839,59.25925925925925,0)" xlink:href="#P"/><use transform="matrix(0.06172839506172839,0,0,0.06172839506172839,65.43209876543209,0)" xlink:href="#am"/><use transform="matrix(0.06172839506172839,0,0,0.06172839506172839,77.77777777777777,0)" xlink:href="#L"/><use transform="matrix(0.06172839506172839,0,0,0.06172839506172839,90.12345679012346,0)" xlink:href="#K"/></g><g id="z"><use transform="matrix(0.06172839506172839,0,0,0.06172839506172839,0,0)" xlink:href="#O"/><use transform="matrix(0.06172839506172839,0,0,0.06172839506172839,12.345679012345679,0)" xlink:href="#N"/><use transform="matrix(0.06172839506172839,0,0,0.06172839506172839,24.691358024691358,0)" xlink:href="#O"/></g><g id="A"><use transform="matrix(0.06172839506172839,0,0,0.06172839506172839,0,0)" xlink:href="#ah"/><use transform="matrix(0.06172839506172839,0,0,0.06172839506172839,12.345679012345679,0)" xlink:href="#Y"/><use transform="matrix(0.06172839506172839,0,0,0.06172839506172839,24.691358024691358,0)" xlink:href="#Y"/><use transform="matrix(0.06172839506172839,0,0,0.06172839506172839,37.03703703703704,0)" xlink:href="#X"/><use transform="matrix(0.06172839506172839,0,0,0.06172839506172839,41.91358024691358,0)" xlink:href="#aa"/><use transform="matrix(0.06172839506172839,0,0,0.06172839506172839,46.79012345679013,0)" xlink:href="#an"/><use transform="matrix(0.06172839506172839,0,0,0.06172839506172839,59.135802469135804,0)" xlink:href="#W"/><use transform="matrix(0.06172839506172839,0,0,0.06172839506172839,71.48148148148148,0)" xlink:href="#am"/><use transform="matrix(0.06172839506172839,0,0,0.06172839506172839,83.82716049382717,0)" xlink:href="#L"/><use transform="matrix(0.06172839506172839,0,0,0.06172839506172839,96.17283950617285,0)" xlink:href="#K"/></g><path fill="#3a414a" d="M177-190C167-65 218 103 67 71c-23-6-38-20-44-43l32-5c15 47 100 32 89-28v-30C133-14 115 1 83 1 29 1 15-40 15-95c0-56 16-97 71-98 29-1 48 16 59 35 1-10 0-23 2-32h30zM94-22c36 0 50-32 50-73 0-42-14-75-50-75-39 0-46 34-46 75s6 73 46 73" id="ao"/><g id="B"><use transform="matrix(0.06172839506172839,0,0,0.06172839506172839,0,0)" xlink:href="#L"/><use transform="matrix(0.06172839506172839,0,0,0.06172839506172839,12.345679012345679,0)" xlink:href="#O"/><use transform="matrix(0.06172839506172839,0,0,0.06172839506172839,24.691358024691358,0)" xlink:href="#Q"/><use transform="matrix(0.06172839506172839,0,0,0.06172839506172839,32.03703703703704,0)" xlink:href="#L"/><use transform="matrix(0.06172839506172839,0,0,0.06172839506172839,44.382716049382715,0)" xlink:href="#ao"/><use transform="matrix(0.06172839506172839,0,0,0.06172839506172839,56.72839506172839,0)" xlink:href="#aa"/><use transform="matrix(0.06172839506172839,0,0,0.06172839506172839,61.60493827160494,0)" xlink:href="#K"/><use transform="matrix(0.06172839506172839,0,0,0.06172839506172839,72.71604938271605,0)" xlink:href="#P"/><use transform="matrix(0.06172839506172839,0,0,0.06172839506172839,78.88888888888889,0)" xlink:href="#Q"/><use transform="matrix(0.06172839506172839,0,0,0.06172839506172839,86.23456790123457,0)" xlink:href="#L"/><use transform="matrix(0.06172839506172839,0,0,0.06172839506172839,98.58024691358025,0)" xlink:href="#Q"/></g><g id="C"><use transform="matrix(0.06172839506172839,0,0,0.06172839506172839,0,0)" xlink:href="#ac"/><use transform="matrix(0.06172839506172839,0,0,0.06172839506172839,12.345679012345679,0)" xlink:href="#ah"/><use transform="matrix(0.06172839506172839,0,0,0.06172839506172839,24.691358024691358,0)" xlink:href="#P"/><use transform="matrix(0.06172839506172839,0,0,0.06172839506172839,30.864197530864196,0)" xlink:href="#L"/></g><g id="D"><use transform="matrix(0.06172839506172839,0,0,0.06172839506172839,0,0)" xlink:href="#ah"/><use transform="matrix(0.06172839506172839,0,0,0.06172839506172839,12.345679012345679,0)" xlink:href="#M"/><use transform="matrix(0.06172839506172839,0,0,0.06172839506172839,23.45679012345679,0)" xlink:href="#P"/><use transform="matrix(0.06172839506172839,0,0,0.06172839506172839,29.62962962962963,0)" xlink:href="#W"/><use transform="matrix(0.06172839506172839,0,0,0.06172839506172839,41.97530864197531,0)" xlink:href="#L"/><use transform="matrix(0.06172839506172839,0,0,0.06172839506172839,54.32098765432099,0)" xlink:href="#X"/><use transform="matrix(0.06172839506172839,0,0,0.06172839506172839,59.19753086419753,0)" xlink:href="#X"/><use transform="matrix(0.06172839506172839,0,0,0.06172839506172839,64.07407407407408,0)" xlink:href="#L"/></g><path fill="#3a414a" d="M18-100v-36l175-74v27L42-118l151 64v27" id="ap"/><use transform="matrix(0.06172839506172839,0,0,0.06172839506172839,0,0)" xlink:href="#ap" id="E"/><path fill="#3a414a" d="M100-194c63 0 86 42 84 106H49c0 40 14 67 53 68 26 1 43-12 49-29l28 8c-11 28-37 45-77 45C44 4 14-33 15-96c1-61 26-98 85-98zm52 81c6-60-76-77-97-28-3 7-6 17-6 28h103zm-36-98l-58-49v-5h36c12 19 30 32 38 54h-16" id="aq"/><g id="F"><use transform="matrix(0.06172839506172839,0,0,0.06172839506172839,0,0)" xlink:href="#ac"/><use transform="matrix(0.06172839506172839,0,0,0.06172839506172839,12.345679012345679,0)" xlink:href="#L"/><use transform="matrix(0.06172839506172839,0,0,0.06172839506172839,24.691358024691358,0)" xlink:href="#Q"/><use transform="matrix(0.06172839506172839,0,0,0.06172839506172839,32.03703703703704,0)" xlink:href="#O"/><use transform="matrix(0.06172839506172839,0,0,0.06172839506172839,44.382716049382715,0)" xlink:href="#aa"/><use transform="matrix(0.06172839506172839,0,0,0.06172839506172839,49.25925925925926,0)" xlink:href="#aq"/><use transform="matrix(0.06172839506172839,0,0,0.06172839506172839,61.60493827160494,0)" xlink:href="#Q"/><use transform="matrix(0.06172839506172839,0,0,0.06172839506172839,68.95061728395062,0)" xlink:href="#L"/></g><g id="G"><use transform="matrix(0.06172839506172839,0,0,0.06172839506172839,0,0)" xlink:href="#ac"/><use transform="matrix(0.06172839506172839,0,0,0.06172839506172839,12.345679012345679,0)" xlink:href="#ah"/><use transform="matrix(0.06172839506172839,0,0,0.06172839506172839,24.691358024691358,0)" xlink:href="#P"/><use transform="matrix(0.06172839506172839,0,0,0.06172839506172839,30.864197530864196,0)" xlink:href="#L"/></g><g id="H"><use transform="matrix(0.06172839506172839,0,0,0.06172839506172839,0,0)" xlink:href="#ac"/><use transform="matrix(0.06172839506172839,0,0,0.06172839506172839,12.345679012345679,0)" xlink:href="#L"/><use transform="matrix(0.06172839506172839,0,0,0.06172839506172839,24.691358024691358,0)" xlink:href="#K"/></g><path fill="#3a414a" d="M141 0L90-78 38 0H4l68-98-65-92h35l48 74 47-74h35l-64 92 68 98h-35" id="ar"/><g id="I"><use transform="matrix(0.06172839506172839,0,0,0.06172839506172839,0,0)" xlink:href="#L"/><use transform="matrix(0.06172839506172839,0,0,0.06172839506172839,12.345679012345679,0)" xlink:href="#ar"/><use transform="matrix(0.06172839506172839,0,0,0.06172839506172839,23.45679012345679,0)" xlink:href="#Y"/><use transform="matrix(0.06172839506172839,0,0,0.06172839506172839,35.80246913580247,0)" xlink:href="#aa"/><use transform="matrix(0.06172839506172839,0,0,0.06172839506172839,40.67901234567901,0)" xlink:href="#Q"/><use transform="matrix(0.06172839506172839,0,0,0.06172839506172839,48.02469135802469,0)" xlink:href="#am"/></g><g id="J"><use transform="matrix(0.06172839506172839,0,0,0.06172839506172839,0,0)" xlink:href="#S"/><use transform="matrix(0.06172839506172839,0,0,0.06172839506172839,14.814814814814813,0)" xlink:href="#Y"/><use transform="matrix(0.06172839506172839,0,0,0.06172839506172839,27.160493827160494,0)" xlink:href="#Y"/><use transform="matrix(0.06172839506172839,0,0,0.06172839506172839,39.50617283950617,0)" xlink:href="#X"/><use transform="matrix(0.06172839506172839,0,0,0.06172839506172839,44.382716049382715,0)" xlink:href="#aa"/><use transform="matrix(0.06172839506172839,0,0,0.06172839506172839,49.25925925925926,0)" xlink:href="#an"/><use transform="matrix(0.06172839506172839,0,0,0.06172839506172839,61.60493827160494,0)" xlink:href="#W"/><use transform="matrix(0.06172839506172839,0,0,0.06172839506172839,73.95061728395062,0)" xlink:href="#L"/><use transform="matrix(0.06172839506172839,0,0,0.06172839506172839,86.2962962962963,0)" xlink:href="#Q"/></g></defs></g></svg>